# xmcd
#
# Track frame offsets:
#	150
#	16932
#	39687
#	61547
#	80895
#	104820
#	124000
#	142387
#
# Disc length: 2201 seconds
#
# Revision: 0
# Processed by: cddbd v1.5.1PL2 Copyright (c) Steve Scherf et al.
# Submitted via: dBpowerAMP V4.0
#
DISCID=72089708
DTITLE=Various Artist - Highlights from New and Classic Releases on Alligator
DYEAR=1900
DGENRE=
TTITLE0=Rusty Zinn/The Big Eye
TTITLE1=Koko Taylor/Ernestine
TTITLE2=Elvin Bishop and Little Smokey Smothers/That's My Partner
TTITLE3=Corey Harris and Henry Butler/Let Em Roll
TTITLE4=Shemekia Copeland/The Other Woman
TTITLE5=Lonnie Brooks and Long John Hunter/Feel Good Doing Bad
TTITLE6=Coco Montoya/In Nee Your Love In My Life
TTITLE7=Albert Collins and Robert Cray/The Moon Is Full
EXTD=
EXTT0=
EXTT1=
EXTT2=
EXTT3=
EXTT4=
EXTT5=
EXTT6=
EXTT7=
PLAYORDER=
